<svg width="116" height="71" viewBox="0 0 116 71" fill="none" xmlns="http://www.w3.org/2000/svg">
<path d="M54.8677 54.7769C56.7901 55.9536 59.2098 55.9536 61.1322 54.7769L83.0285 41.3749C85.3025 39.9831 85.3025 36.6798 83.0285 35.2879C81.8852 34.5881 80.4461 34.5881 79.3028 35.2879L61.1322 46.4096C59.2098 47.5862 56.7901 47.5862 54.8677 46.4096L36.6972 35.2879C35.5539 34.5881 34.1148 34.5881 32.9715 35.2879C30.6975 36.6798 30.6975 39.9831 32.9715 41.3749L54.8677 54.7769ZM54.8677 38.0626C56.7901 39.2393 59.2098 39.2393 61.1322 38.0626L83.0285 24.6607C85.3025 23.2688 85.3025 19.9655 83.0285 18.5737C81.8852 17.8739 80.4461 17.8739 79.3028 18.5737L61.1322 29.6953C59.2098 30.8719 56.7901 30.8719 54.8677 29.6953L36.6972 18.5737C35.5539 17.8739 34.1148 17.8739 32.9715 18.5737C30.6975 19.9655 30.6975 23.2688 32.9715 24.6607L54.8677 38.0626Z" fill="#FD2E9F"/>
</svg>
