<svg width="253" height="45" viewBox="0 0 253 45" fill="none" xmlns="http://www.w3.org/2000/svg">
<path d="M10.8398 5.50781C11.0742 5.39062 11.2793 5.29297 11.4551 5.21484C11.8066 5.03906 12.2168 4.87305 12.6855 4.7168L13.3301 4.51172L13.9746 4.30664C12.0801 4.59961 10.3809 5.20508 8.87695 6.12305C8.29102 6.43555 7.55859 6.97266 6.67969 7.73438L6.44531 7.99805L6.18164 8.23242C5.98633 8.42773 5.83984 8.59375 5.74219 8.73047L5.30273 9.25781L4.89258 9.81445C3.85742 11.3184 3.24219 13.0273 3.04688 14.9414C2.87109 16.6406 2.89062 18.4473 3.10547 20.3613L3.13477 19.0137C3.1543 18.5059 3.18359 18.0566 3.22266 17.666L3.31055 16.3184C3.34961 15.8301 3.4082 15.3906 3.48633 15C3.7793 13.125 4.4043 11.5039 5.36133 10.1367C5.69336 9.60938 6.25977 8.94531 7.06055 8.14453C7.7832 7.46094 8.4668 6.91406 9.11133 6.50391C9.24805 6.38672 9.43359 6.25977 9.66797 6.12305L10.2539 5.80078L10.8398 5.50781ZM24.4922 3.07617C27.9102 4.63867 30.4395 7.17773 32.0801 10.6934C33.4277 13.5645 34.3359 16.875 34.8047 20.625C35.2539 24.1602 35.2539 27.6172 34.8047 30.9961C34.375 34.375 33.5645 37.1094 32.373 39.1992C31.084 41.4648 29.5215 42.6465 27.6855 42.7441C25.498 42.8809 23.8477 42.0605 22.7344 40.2832C21.2305 37.9004 20.5859 33.7402 20.8008 27.8027C20.8789 25.127 20.625 22.9102 20.0391 21.1523C19.3945 19.2773 18.4961 18.4082 17.3438 18.5449C15.293 18.8184 14.7363 21.4453 15.6738 26.4258C16.8848 32.7148 17.2266 37.1387 16.6992 39.6973C16.2305 41.9629 14.9121 43.2324 12.7441 43.5059C11.2207 43.7012 9.6582 42.959 8.05664 41.2793C6.55273 39.6973 5.20508 37.4805 4.01367 34.6289C1.33789 28.2812 0.3125 21.7969 0.9375 15.1758C1.26953 11.6211 2.76367 8.61328 5.41992 6.15234C7.88086 3.86719 10.8887 2.43164 14.4434 1.8457C18.0176 1.24023 21.3672 1.65039 24.4922 3.07617ZM56.6016 31.5527C57.1289 31.2988 57.5879 30.9082 57.9785 30.3809C58.7402 29.3457 58.9844 28.2227 58.7109 27.0117C58.4961 28.2422 58.0957 29.2578 57.5098 30.0586C56.8652 30.918 55.9961 31.5527 54.9023 31.9629C55.4883 32.002 56.0547 31.8652 56.6016 31.5527ZM52.207 25.3711C51.8555 25.9766 51.7383 26.6504 51.8555 27.3926C51.9727 28.1348 52.2949 28.7305 52.8223 29.1797C53.3496 29.6289 53.9258 29.8047 54.5508 29.707C55.1758 29.6094 55.6641 29.2578 56.0156 28.6523C56.3867 28.0664 56.5039 27.4023 56.3672 26.6602C56.25 25.918 55.9277 25.3223 55.4004 24.873C54.873 24.4043 54.2969 24.2188 53.6719 24.3164C53.0469 24.4336 52.5586 24.7852 52.207 25.3711ZM46.3184 7.4707C47.4902 6.37695 48.8281 5.52734 50.332 4.92188C51.6992 4.35547 53.2715 4.00391 55.0488 3.86719L53.8184 3.83789L53.2031 3.86719L52.5879 3.92578C51.7285 4.04297 50.9277 4.22852 50.1855 4.48242C48.6426 5.00977 47.2266 5.86914 45.9375 7.06055C44.7266 8.17383 43.7305 9.49219 42.9492 11.0156C42.1875 12.4805 41.6406 14.0234 41.3086 15.6445L41.748 14.502L42.2168 13.3594L42.7441 12.2754L43.0371 11.748L43.3301 11.2207C44.248 9.7168 45.2441 8.4668 46.3184 7.4707ZM45.0293 5.18555C49.0723 1.72852 54.1113 0.742187 60.1465 2.22656C65.5371 3.55469 69.1602 6.70898 71.0156 11.6895C72.6562 16.1035 72.6953 21.0938 71.1328 26.6602C69.6094 32.0898 67.0508 36.4062 63.457 39.6094C59.5117 43.125 55.3125 44.2773 50.8594 43.0664C46.1133 41.7969 42.5977 38.623 40.3125 33.5449C38.1836 28.8574 37.5391 23.7598 38.3789 18.252C39.2578 12.5879 41.4746 8.23242 45.0293 5.18555ZM100.049 5.18555C100.283 4.87305 100.537 4.6582 100.811 4.54102C101.064 4.42383 101.406 4.33594 101.836 4.27734C101.406 4.25781 101.055 4.29688 100.781 4.39453C100.449 4.49219 100.137 4.6875 99.8438 4.98047C99.4336 5.42969 99.1016 6.09375 98.8477 6.97266C98.5742 8.06641 98.4473 9.49219 98.4668 11.25V11.8066L98.4961 12.334C98.4961 12.7441 98.4863 13.0859 98.4668 13.3594C98.4277 14.043 98.291 14.7168 98.0566 15.3809C97.5488 16.7676 96.6309 17.7734 95.3027 18.3984C95.9863 18.2031 96.6113 17.8516 97.1777 17.3438C97.7051 16.8555 98.125 16.2598 98.4375 15.5566C98.7305 14.9316 98.916 14.2188 98.9941 13.418C99.0332 13.1055 99.043 12.7344 99.0234 12.3047V11.7773V11.25C98.9844 9.57031 99.0723 8.17383 99.2871 7.06055C99.4629 6.24023 99.7168 5.61523 100.049 5.18555ZM79.4824 7.93945C79.8535 6.88477 80.3809 5.99609 81.0645 5.27344C81.8457 4.41406 82.7539 3.93555 83.7891 3.83789C83.2812 3.7793 82.7441 3.84766 82.1777 4.04297C81.6504 4.23828 81.1719 4.54102 80.7422 4.95117C79.9609 5.6543 79.3652 6.5918 78.9551 7.76367C78.252 9.83398 77.8711 11.9727 77.8125 14.1797L78.1934 12.5977L78.5742 11.0449C78.8867 9.85352 79.1895 8.81836 79.4824 7.93945ZM97.5 4.7168C98.3203 3.03711 99.7266 2.13867 101.719 2.02148C104.512 1.88477 106.729 3.75 108.369 7.61719C109.951 11.3281 110.654 15.9668 110.479 21.5332C110.264 28.7598 109.648 33.9355 108.633 37.0605C107.246 41.377 104.824 43.5352 101.367 43.5352C99.3164 43.5352 97.7441 42.7441 96.6504 41.1621C95.4395 39.4629 94.9219 37.002 95.0977 33.7793C95.1758 31.8652 94.9023 30.4688 94.2773 29.5898C93.7891 28.9258 93.1055 28.5938 92.2266 28.5938C90.4297 28.5938 89.668 30.4004 89.9414 34.0137C90.3125 38.9551 88.623 41.6992 84.873 42.2461C83.1934 42.4805 81.6602 42.0215 80.2734 40.8691C78.5742 39.4629 77.3438 37.1484 76.582 33.9258C75.5469 29.5898 75.0586 25.0195 75.1172 20.2148C75.1758 15.2344 75.8203 10.918 77.0508 7.26562C77.6758 5.37109 78.6719 3.90625 80.0391 2.87109C81.4453 1.79687 83.0273 1.39648 84.7852 1.66992C86.9727 2.00195 88.5352 2.93945 89.4727 4.48242C90.5273 6.2207 90.8691 8.80859 90.498 12.2461C90.3809 13.457 90.5664 14.4434 91.0547 15.2051C91.543 15.9473 92.2656 16.3574 93.2227 16.4355C94.1797 16.5137 94.9512 16.2305 95.5371 15.5859C96.2402 14.8438 96.5625 13.7305 96.5039 12.2461C96.3477 8.84766 96.6797 6.33789 97.5 4.7168ZM132.246 15.7324C132.617 14.6777 132.734 13.3789 132.598 11.8359C132.48 10.5078 132.422 9.22852 132.422 7.99805C132.422 7.29492 132.471 6.66016 132.568 6.09375C132.666 5.35156 132.871 4.75586 133.184 4.30664C132.832 4.6582 132.539 5.23438 132.305 6.03516C132.168 6.58203 132.061 7.22656 131.982 7.96875C131.904 9.08203 131.924 10.3809 132.041 11.8652C132.178 13.3301 132.119 14.5801 131.865 15.6152C131.514 16.9629 130.781 17.9492 129.668 18.5742C130.273 18.3594 130.811 17.998 131.279 17.4902C131.689 17.002 132.012 16.416 132.246 15.7324ZM117.422 7.88086C117.773 7.06055 118.154 6.35742 118.564 5.77148C119.209 4.95117 119.844 4.49219 120.469 4.39453C120.098 4.35547 119.688 4.45312 119.238 4.6875C118.945 4.82422 118.613 5.09766 118.242 5.50781C117.734 6.05469 117.285 6.76758 116.895 7.64648C116.582 8.38867 116.338 9.19922 116.162 10.0781C116.006 10.7617 115.918 11.582 115.898 12.5391L116.25 11.3672L116.572 10.166C116.904 9.15039 117.188 8.38867 117.422 7.88086ZM141.328 7.08984C142.695 10.3516 143.447 14.9414 143.584 20.8594C143.975 36.1133 141.543 43.6719 136.289 43.5352C134.375 43.4766 132.881 42.7246 131.807 41.2793C130.596 39.6387 129.98 37.207 129.961 33.9844C129.941 32.0508 129.609 30.6543 128.965 29.7949C128.477 29.1309 127.832 28.8281 127.031 28.8867C126.855 28.8867 126.572 28.9062 126.182 28.9453L125.918 28.9746L125.654 29.0039C125.439 29.043 125.244 29.0723 125.068 29.0918C124.014 29.1895 123.076 29.1992 122.256 29.1211C119.717 28.9258 117.764 27.9492 116.396 26.1914C115.146 24.5703 114.297 22.7734 113.848 20.8008C113.281 18.418 113.232 15.5664 113.701 12.2461C114.111 9.21875 114.922 6.78711 116.133 4.95117C117.363 3.0957 118.809 2.16797 120.469 2.16797C122.305 2.16797 123.604 2.90039 124.365 4.36523C125.205 5.94727 125.547 8.60352 125.391 12.334C125.332 13.8574 125.498 14.9609 125.889 15.6445C126.26 16.3477 126.904 16.709 127.822 16.7285C128.643 16.748 129.258 16.3965 129.668 15.6738C130.098 14.873 130.244 13.7012 130.107 12.1582C129.463 5.16602 130.898 1.64062 134.414 1.58203C137.461 1.54297 139.766 3.37891 141.328 7.08984ZM168.105 8.4082C168.652 7.58789 169.18 6.88477 169.688 6.29883C170.273 5.61523 170.928 5.0293 171.65 4.54102C170.342 5.20508 169.043 6.41602 167.754 8.17383C166.777 9.50195 165.928 11.0742 165.205 12.8906C164.932 13.5547 164.629 14.3945 164.297 15.4102L163.857 16.6699L163.447 17.9297C163.076 18.9844 162.695 19.7559 162.305 20.2441C162.012 20.6348 161.689 20.918 161.338 21.0938C161.006 21.25 160.576 21.3379 160.049 21.3574C160.576 21.416 161.025 21.3672 161.396 21.2109C161.807 21.0742 162.178 20.8203 162.51 20.4492C162.939 19.9414 163.389 19.1504 163.857 18.0762C164.092 17.5293 164.404 16.6992 164.795 15.5859L165.264 14.3262L165.732 13.0957C166.396 11.416 167.188 9.85352 168.105 8.4082ZM149.561 17.3438C149.775 15.6836 150.02 14.2578 150.293 13.0664L150.352 12.8027L150.41 12.5391L150.557 11.9531C150.654 11.4844 150.762 11.0645 150.879 10.6934C151.152 9.67773 151.465 8.79883 151.816 8.05664C152.754 6.04492 153.975 4.9707 155.479 4.83398C154.248 4.75586 153.154 5.37109 152.197 6.67969C151.846 7.16797 151.504 7.76367 151.172 8.4668C150.938 8.99414 150.713 9.58984 150.498 10.2539C149.346 13.5938 148.857 17.3926 149.033 21.6504L149.297 19.5117L149.561 17.3438ZM169.922 2.92969C172.383 1.25 174.805 1.13281 177.188 2.57812C179.102 3.75 180.635 6.5625 181.787 11.0156C182.861 15.1367 183.398 19.7461 183.398 24.8438C183.379 30.0586 182.812 34.375 181.699 37.793C180.43 41.6016 178.672 43.5156 176.426 43.5352C172.93 43.5547 171.23 41.1816 171.328 36.416C171.348 35.6543 171.416 34.7656 171.533 33.75C171.572 33.418 171.621 33.0078 171.68 32.5195L171.768 31.9629L171.826 31.4062C172.021 29.8633 171.992 29.0527 171.738 28.9746C171.484 28.916 171.289 28.9844 171.152 29.1797C171.055 29.2969 170.85 29.7168 170.537 30.4395C170.361 30.8691 170.186 31.25 170.01 31.582C169.775 32.1094 169.521 32.6367 169.248 33.1641C168.506 34.5508 167.607 36.0547 166.553 37.6758C165.361 39.5312 163.906 40.9766 162.188 42.0117C160.371 43.1055 158.545 43.5352 156.709 43.3008C150.42 42.4414 147.1 36.4062 146.748 25.1953C146.553 19.1016 147.158 13.9355 148.564 9.69727C150.029 5.32227 152.012 2.96875 154.512 2.63672C156.562 2.36328 158.066 2.91992 159.023 4.30664C160.215 6.06445 160.498 9.0918 159.873 13.3887C159.541 15.7324 159.395 17.2363 159.434 17.9004C159.453 18.6426 159.717 19.0332 160.225 19.0723C160.498 19.0918 160.771 18.8184 161.045 18.252C161.26 17.8418 161.553 17.0996 161.924 16.0254L162.07 15.6738L162.188 15.3223L162.451 14.5605C162.666 13.9355 162.861 13.3887 163.037 12.9199C163.525 11.6309 164.023 10.498 164.531 9.52148C166.094 6.49414 167.891 4.29688 169.922 2.92969ZM203.438 13.2129C204.199 12.5488 204.971 11.7188 205.752 10.7227C206.162 10.1953 206.504 9.73633 206.777 9.3457L207.012 8.99414L207.246 8.64258C207.422 8.34961 207.578 8.125 207.715 7.96875C208.496 6.93359 209.395 6.37695 210.41 6.29883C209.883 6.24023 209.326 6.34766 208.74 6.62109C208.232 6.875 207.773 7.22656 207.363 7.67578C207.207 7.85156 207.031 8.08594 206.836 8.37891L206.602 8.70117L206.338 9.05273C206.025 9.48242 205.693 9.92188 205.342 10.3711C204.619 11.2891 203.887 12.1289 203.145 12.8906C202.188 13.8477 201.338 14.5605 200.596 15.0293C201.514 14.6777 202.461 14.0723 203.438 13.2129ZM193.096 5.33203C193.447 4.90234 193.818 4.56055 194.209 4.30664C194.619 4.0332 195.088 3.85742 195.615 3.7793C195.127 3.74023 194.609 3.83789 194.062 4.07227C193.594 4.30664 193.164 4.62891 192.773 5.03906C192.168 5.66406 191.611 6.5625 191.104 7.73438C190.713 8.63281 190.391 9.62891 190.137 10.7227C189.922 11.582 189.766 12.6172 189.668 13.8281L190.107 12.334L190.547 10.8398C190.957 9.58984 191.309 8.62305 191.602 7.93945C192.09 6.82617 192.588 5.95703 193.096 5.33203ZM206.807 20.127C206.396 20.4785 206.582 20.8691 207.363 21.2988C211.68 23.6816 214.707 26.7676 216.445 30.5566C217.246 32.3535 217.627 34.1016 217.588 35.8008C217.549 37.5781 217.051 39.1699 216.094 40.5762C215.234 41.8262 214.18 42.6953 212.93 43.1836C211.68 43.6328 210.41 43.6523 209.121 43.2422C207.773 42.793 206.562 41.9043 205.488 40.5762C204.336 39.1113 203.457 37.2363 202.852 34.9512C201.914 31.3965 200.908 29.1602 199.834 28.2422C199.424 27.8906 199.102 27.8125 198.867 28.0078C198.652 28.2031 198.584 28.5645 198.662 29.0918V29.1797L198.691 29.2969L198.721 29.5605C198.76 29.7949 198.789 30.0293 198.809 30.2637C198.887 30.8691 198.955 31.4746 199.014 32.0801C199.15 33.8184 199.141 35.3809 198.984 36.7676C198.516 40.8887 196.846 42.998 193.975 43.0957C190.85 43.2129 188.682 40.9375 187.471 36.2695C186.455 32.4219 186.162 27.3438 186.592 21.0352C187.021 14.7461 187.969 9.9707 189.434 6.70898C191.25 2.62695 193.828 0.976562 197.168 1.75781C198.789 2.14844 199.824 3.10547 200.273 4.62891C200.801 6.46484 200.361 8.84766 198.955 11.7773C198.604 12.5 198.545 12.959 198.779 13.1543C199.014 13.3301 199.453 13.2129 200.098 12.8027C201.719 11.8066 203.418 9.96094 205.195 7.26562C206.25 5.68359 207.52 4.6875 209.004 4.27734C210.332 3.90625 211.621 4.04297 212.871 4.6875C214.102 5.33203 214.98 6.30859 215.508 7.61719C216.074 9.04297 216.104 10.5469 215.596 12.1289C215.049 13.8281 214.102 15.293 212.754 16.5234C211.855 17.3633 210.674 18.1445 209.209 18.8672C209.014 18.9648 208.75 19.082 208.418 19.2188L208.066 19.3945L207.744 19.5703C207.275 19.7852 206.963 19.9707 206.807 20.127ZM244.688 27.4805C244.922 27.2852 245.127 27.1387 245.303 27.041C245.791 26.748 246.279 26.5527 246.768 26.4551C246.26 26.3379 245.713 26.4062 245.127 26.6602C244.912 26.7383 244.658 26.8652 244.365 27.041L244.043 27.2754L243.721 27.5098C242.822 28.1152 241.875 28.5156 240.879 28.7109C241.387 28.8281 241.934 28.8086 242.52 28.6523C243.008 28.5352 243.516 28.3008 244.043 27.9492L244.365 27.7148L244.688 27.4805ZM225.674 11.3086C226.475 9.88281 227.383 8.65234 228.398 7.61719C229.453 6.50391 230.684 5.60547 232.09 4.92188C233.379 4.35547 234.873 4.00391 236.572 3.86719C235.869 3.80859 235.088 3.83789 234.229 3.95508C233.486 4.05273 232.715 4.24805 231.914 4.54102C230.469 5.12695 229.16 6.02539 227.988 7.23633C226.875 8.38867 225.977 9.67773 225.293 11.1035C224.59 12.5488 224.092 14.043 223.799 15.5859C224.365 13.9258 224.99 12.5 225.674 11.3086ZM248.379 24.4629C250.293 25.2246 251.387 27.1191 251.66 30.1465C251.973 33.4668 250.918 36.3965 248.496 38.9355C245.957 41.6113 242.568 43.125 238.33 43.4766C235.83 43.6914 233.496 43.3887 231.328 42.5684C229.16 41.748 227.285 40.459 225.703 38.7012C222.305 34.9902 220.605 29.8438 220.605 23.2617C220.605 17.4609 221.846 12.5977 224.326 8.67188C226.611 5.07812 229.492 2.86133 232.969 2.02148C235.684 1.35742 238.359 1.43555 240.996 2.25586C243.867 3.13477 246.191 4.76563 247.969 7.14844C248.789 8.26172 249.287 9.42383 249.463 10.6348C249.639 11.748 249.521 12.7637 249.111 13.6816C248.701 14.5605 248.096 15.1855 247.295 15.5566C246.455 15.9473 245.537 15.9668 244.541 15.6152C242.275 14.7949 240.508 14.4824 239.238 14.6777C237.5 14.9512 236.475 16.1523 236.162 18.2812C235.947 19.7461 236.016 21.1133 236.367 22.3828C236.699 23.5352 237.227 24.4824 237.949 25.2246C238.672 25.9473 239.463 26.3477 240.322 26.4258C241.24 26.5234 242.119 26.25 242.959 25.6055C243.818 24.9414 244.727 24.502 245.684 24.2871C246.641 24.0723 247.539 24.1309 248.379 24.4629Z" fill="#FD2E9F"/>
</svg>
